<?xml version="1.0" encoding="UTF-8" standalone="no"?>
<!DOCTYPE svg PUBLIC "-//W3C//DTD SVG 1.1//EN" "http://www.w3.org/Graphics/SVG/1.1/DTD/svg11.dtd">
<svg width="100%" height="100%" viewBox="0 0 646 254" version="1.1" xmlns="http://www.w3.org/2000/svg" xmlns:xlink="http://www.w3.org/1999/xlink" xml:space="preserve" xmlns:serif="http://www.serif.com/" style="fill-rule:evenodd;clip-rule:evenodd;stroke-linejoin:round;stroke-miterlimit:2;">
    <g transform="matrix(0.808542,0,0,0.778411,0,0)">
        <g>
            <path d="M600.903,15.069C611.766,15.069 621.053,18.732 628.763,26.058C636.473,33.381 640.329,42.204 640.329,52.527C640.329,62.846 639.111,83.655 605.508,92.42L647.184,146.618C616.89,146.618 596.193,144.092 585.649,127.925L568.112,92.524L548.155,92.524L546.604,145.24C537.006,145.842 528.926,143.407 523.672,135.317L511.918,115.634L511.918,15.069L600.903,15.069ZM546.963,48.364L546.963,66.756L600.903,66.756C602.128,66.756 603.164,66.354 604.012,65.549C604.86,64.745 605.284,53.69 605.284,52.527C605.284,51.36 604.86,50.375 604.012,49.571C603.164,48.766 602.128,48.364 600.903,48.364L546.963,48.364Z" style="fill:rgb(255,0,0);fill-rule:nonzero;"/>
            <path d="M445.582,14.67L522.487,145.349C491.758,144.813 470.468,138.345 454.847,118.475L419.588,59.049L445.582,14.67Z" style="fill:rgb(255,0,0);"/>
            <path d="M367.051,147.24L411.153,71.948L419.882,85.981C425.672,96.148 430.563,106.439 429.476,117.707C425.299,133.53 415.563,143.806 399.121,147.389L367.05,147.24L367.051,147.24Z"/>
            <path d="M713.487,149.252C695.302,149.252 679.783,142.606 666.927,129.316C654.072,116.022 647.645,99.974 647.645,81.173C647.645,62.368 654.072,46.32 666.927,33.03C679.783,19.736 695.302,13.091 713.487,13.091L732.299,13.091C750.485,13.091 766.004,19.736 778.859,33.03C791.716,46.32 798.143,62.368 798.143,81.173C798.143,99.974 791.716,116.022 778.859,129.316C766.004,142.606 750.485,149.252 732.299,149.252L713.487,149.252ZM713.487,51.994C705.712,51.994 699.063,54.846 693.545,60.553C688.026,66.259 685.269,73.133 685.269,81.173C685.269,89.213 688.026,96.083 693.545,101.79C699.063,107.496 705.712,110.348 713.487,110.348L732.299,110.348C740.075,110.348 746.721,107.496 752.239,101.79C757.757,96.083 760.518,89.213 760.518,81.173C760.518,73.133 757.757,66.259 752.239,60.553C746.721,54.846 740.075,51.994 732.299,51.994L713.487,51.994Z" style="fill:rgb(255,0,0);fill-rule:nonzero;"/>
        </g>
        <g>
            <path d="M447.474,294.04C428.371,293.699 421.194,283.033 414.24,266.375L443.006,263.187C449.561,261.977 458.945,259.611 465.101,255.089C473.142,249.179 473.214,239.205 473.463,231.599C473.729,223.53 471.667,215.439 466.894,210.04C462.126,204.642 456.38,201.943 449.658,201.943L409.012,201.943L409.012,296.776C396.142,300.214 377.623,292.022 376.489,277.695L376.489,165.125L449.658,165.125C465.376,165.125 478.794,171.412 489.903,183.992C501.016,196.573 506.57,215.682 506.57,233.476C506.57,251.274 501.016,262.535 489.903,275.115C478.794,287.695 462.402,294.308 447.474,294.04Z" style="fill-rule:nonzero;"/>
            <path d="M574.493,293.985C557.344,293.985 542.71,287.695 530.586,275.115C518.462,262.535 512.4,247.349 512.4,229.556C512.4,211.758 518.462,196.573 530.586,183.992C542.71,171.412 557.344,165.125 574.492,165.125L592.237,165.125C609.386,165.125 624.02,171.412 636.144,183.992C648.267,196.573 654.329,211.758 654.329,229.556C654.329,247.349 648.267,262.535 636.144,275.115C624.02,287.695 609.386,293.985 592.237,293.985L574.493,293.985ZM574.493,201.943C567.159,201.943 560.891,204.642 555.688,210.04C550.485,215.439 547.883,221.947 547.883,229.556C547.883,237.165 550.485,243.668 555.688,249.067C560.891,254.466 567.159,257.166 574.493,257.166L592.237,257.166C599.566,257.166 605.838,254.466 611.042,249.067C616.245,243.668 618.846,237.165 618.846,229.556C618.846,221.947 616.245,215.439 611.042,210.04C605.838,204.642 599.566,201.943 592.237,201.943L574.493,201.943Z" style="fill-rule:nonzero;"/>
            <path d="M788.073,164.553C784.232,182.597 766.104,201.192 747.814,201.369L696.029,201.369C694.892,201.369 693.928,201.816 693.141,202.703C692.355,203.595 691.964,204.682 691.964,205.971C691.964,207.261 692.355,208.348 693.141,209.239C693.928,210.127 694.892,210.573 696.029,210.573L752.938,210.573C763.017,210.573 771.637,214.624 778.79,222.722C785.946,230.824 789.522,240.581 789.522,251.995C789.522,263.408 785.946,273.163 778.79,281.264C771.637,289.362 763.017,293.413 752.938,293.413L662.724,293.413C665.061,269.006 678.818,256.893 694.634,256.597L752.938,256.597C754.075,256.597 755.039,256.151 755.826,255.259C756.612,254.372 757.003,253.281 757.003,251.995C757.003,250.705 756.612,249.614 755.826,248.727C755.039,247.836 754.075,247.389 752.938,247.389L696.029,247.389C685.945,247.389 677.329,243.342 670.174,235.24C663.021,227.143 659.444,217.385 659.444,205.971C659.444,194.558 663.021,184.8 670.174,176.702C677.329,168.604 685.945,164.553 696.029,164.553L788.073,164.553Z" style="fill-rule:nonzero;"/>
        </g>
    </g>
    <g transform="matrix(0.808542,0,0,0.778411,0,0)">
        <circle cx="162.832" cy="162.832" r="162.832"/>
    </g>
    <g transform="matrix(0.808542,0,0,0.778411,0,0)">
        <path d="M50.669,232.125L114.204,121.015L126.776,141.726C135.117,156.727 142.165,171.912 140.596,188.543C134.577,211.892 120.555,227.056 96.865,232.342L50.668,232.125L50.669,232.125Z" style="fill:white;"/>
        <path d="M164.202,39.244L274.992,232.088C230.723,231.295 200.051,221.751 177.547,192.431L126.754,104.735L164.202,39.244Z" style="fill:rgb(255,0,0);"/>
    </g>
</svg>
